<?xml version="1.0" encoding="UTF-8" standalone="no"?>
<!-- Created with Inkscape (http://www.inkscape.org/) -->

<svg
   width="75.554672mm"
   height="60.715881mm"
   viewBox="0 0 75.554672 60.715881"
   version="1.1"
   id="svg12297"
   xmlns="http://www.w3.org/2000/svg"
   xmlns:svg="http://www.w3.org/2000/svg">
  <defs
     id="defs12294" />
  <g
     id="layer1"
     transform="translate(-32.978547,-67.477354)">
    <circle
       r="28.652925"
       cy="96.13028"
       cx="69.562576"
       id="path6023"
       style="display:inline;opacity:0.464;fill:#8b00e7;fill-opacity:1;stroke:none;stroke-width:0.175181;stroke-opacity:1" />
    <path
       d="m 35.816939,101.0526 h 3.88338 c 2.52871,0 4.04142,-0.24835 5.396091,-0.92568 2.57386,-1.264363 4.08657,-4.018853 4.08657,-7.382943 0,-3.160888 -1.30951,-5.77991 -3.63502,-7.179732 -1.309511,-0.790221 -3.296351,-1.196621 -5.915381,-1.196621 h -3.81564 z m 3.09315,-2.957683 V 87.325313 h 0.6096 c 1.96427,0 3.02543,0.180622 3.99627,0.677333 1.580451,0.8128 2.551291,2.596441 2.551291,4.741331 0,2.00942 -0.92569,3.79307 -2.415821,4.60587 -0.92569,0.51929 -2.21262,0.74507 -4.064,0.74507 z"
       style="font-style:normal;font-variant:normal;font-weight:600;font-stretch:normal;font-size:22.5778px;line-height:1;font-family:'URW Gothic L';-inkscape-font-specification:'URW Gothic L, Semi-Bold';font-variant-ligatures:normal;font-variant-caps:normal;font-variant-numeric:normal;font-feature-settings:normal;text-align:start;letter-spacing:-1.03188px;word-spacing:0px;writing-mode:lr-tb;text-anchor:start;display:inline;opacity:0.997;fill:none;fill-opacity:1;stroke:#2f0219;stroke-width:0.165;stroke-linejoin:bevel;stroke-miterlimit:4;stroke-dasharray:none;stroke-dashoffset:0;stroke-opacity:1"
       id="path889-7-3-2" />
    <path
       d="m 69.96497,76.422407 -9.80405,12.961482 c -1.06263,-0.771872 -2.38196,-1.214914 -3.85454,-1.214914 -3.72371,0 -6.67401,2.951864 -6.67401,6.675562 0,2.103496 0.96895,3.941432 2.5125,5.137156 l -3.96461,5.241537 v 14.77429 h 6.90862 v 1.51257 H 46.50956 V 107.4324 L 33.472629,124.66804 H 106.45784 L 87.737018,99.918648 c 0.27022,-0.232246 0.52853,-0.491146 0.77618,-0.777214 l 0.002,-0.0021 c 0.47783,-0.591579 0.80089,-1.120335 1.0077,-1.763715 l -0.078,-0.109037 h -3.27525 l -0.0625,0.02894 c -0.0649,0.07638 -0.12924,0.143185 -0.19378,0.211357 l -0.97824,-1.292944 h 4.71289 l 0.08,-0.06661 c 0.0912,-0.433121 0.11524,-0.713579 0.11524,-1.167887 0,-3.92207 -2.77388,-6.810439 -6.5412,-6.810439 -1.3527,0 -2.6021,0.390967 -3.64629,1.06557 z m 5.3e-4,8.030516 c 3.85205,0 7.30375,2.10548 9.18497,5.143355 -0.006,0.0048 -0.0117,0.01 -0.0176,0.01497 0.002,5.29e-4 0.004,7.94e-4 0.006,0.0021 0.003,0.0027 0.004,0.0052 0.007,0.0078 -0.006,-0.0021 -0.0111,-0.0041 -0.017,-0.0062 -0.002,0.0019 -0.004,0.0034 -0.006,0.0052 2.7e-4,0.0074 8e-4,0.01476 5.3e-4,0.02223 0.027,-0.0013 0.0306,-0.0049 0.0346,-0.0083 0.0391,0.03781 0.0552,0.0759 0.063,0.115239 1.111208,-0.887301 2.525268,-1.416452 4.081408,-1.416452 3.68333,0 6.37532,2.801935 6.37532,6.646625 0,0.422568 -0.0291,0.685073 -0.10594,1.068152 h -9.60927 l -0.0816,0.101801 c 0.36989,1.548949 1.72178,2.525426 3.53467,2.525426 1.23788,0 2.01509,-0.35718 2.78174,-1.242301 h 3.1073 c -0.20014,0.569623 -0.47728,1.0575 -0.91829,1.603521 -1.29611,1.496141 -2.8684,2.228801 -4.90202,2.228801 -1.58292,0 -3.0115,-0.49759 -4.140838,-1.337383 -0.017,0.02281 -0.0354,0.04496 -0.0553,0.06563 -0.007,0.02074 -0.0119,0.04235 -0.0238,0.06046 -0.006,0.009 -0.006,0.007 -0.0103,0.0124 0.002,0.002 0.004,0.003 0.007,0.005 -0.0242,0.0405 -0.0508,0.0797 -0.0755,0.11988 -0.009,0.0179 -0.0193,0.0349 -0.0326,0.0517 -0.009,0.014 -0.0176,0.0279 -0.0264,0.0419 -0.003,0.007 -0.007,0.0146 -0.0139,0.0222 -1.40737,2.22492 -3.66209,3.95694 -6.29832,4.69894 v 6.27662 c 1.06116,-1.55777 2.77692,-2.41535 4.85397,-2.41535 3.657598,0 6.502438,2.82195 6.502438,6.45697 0,3.70275 -2.79932,6.4797 -6.524658,6.4797 -2.032,0 -3.79317,-0.88058 -4.83175,-2.41587 v 2.12235 h -1.6707 v -16.18099 c -0.38809,0.0441 -0.78005,0.0729 -1.1777,0.0729 -3.94752,0 -7.48688,-2.22406 -9.34982,-5.35316 -1.6e-4,-1.9e-4 -2.7e-4,-2.7e-4 -5.3e-4,-5.3e-4 -0.008,-0.01 -0.0152,-0.0198 -0.0233,-0.0295 -0.0203,-0.0244 -0.0373,-0.0371 -0.0501,-0.0677 -0.005,-0.0061 -0.008,-0.01714 -0.0129,-0.02429 -0.008,-0.01169 -0.0142,-0.02381 -0.0212,-0.03566 -1.1167,0.916113 -2.42516,1.373563 -4.01991,1.373563 -3.77463,0 -6.69158,-2.807152 -6.69158,-6.420284 0,-3.63665 2.87355,-6.511748 6.5102,-6.511748 1.66336,0 3.12159,0.57476 4.22352,1.555978 0.003,-0.0041 0.003,-0.0097 0.006,-0.01291 9e-5,-9.5e-5 0.018,-0.01357 0.0279,-0.02222 0.001,-0.0019 0.001,-0.0028 0.002,-0.0041 2.6e-4,-0.0013 -2.5e-4,-0.0027 5.3e-4,-0.0036 0.0184,-0.03317 0.007,-0.01699 0.0315,-0.03566 10e-4,-0.0011 -0.003,0.0013 -0.005,0.0021 -0.0116,0.01061 0.003,-0.0019 0.0129,-0.0098 -0.002,-0.0016 0.003,-0.0049 0.004,-0.0072 0.003,-0.0046 0.006,-0.0096 0.0103,-0.01344 0.006,-0.0061 0.0138,-0.01069 0.0207,-0.01603 0.0319,-0.01778 0.003,2.64e-4 0.003,-0.0011 5e-5,-7.94e-4 0.004,-0.0038 0.008,-0.0067 1.89072,-3.063494 5.45331,-5.305102 9.3152,-5.305102 z m 0,1.861902 c -3.42323,0 -6.56494,2.246654 -7.96075,5.189863 -2.7e-4,-5.29e-4 -7.9e-4,-0.0011 -0.001,-0.0016 -0.002,0.0033 -5.3e-4,0.0071 -0.003,0.01035 -5.3e-4,7.94e-4 -10e-4,0.0013 -0.002,0.0027 -8e-4,0.0021 -10e-4,0.0039 -0.002,0.0057 -0.002,0.02241 -0.0108,0.04176 -0.0186,0.06046 -0.004,0.01371 -0.0139,0.02246 -0.0222,0.03307 -5.3e-4,5.29e-4 -0.001,0.0027 -5.3e-4,0.0021 0.002,-0.0021 0.004,-0.0097 0.004,-0.0067 -5e-5,0.005 -0.003,0.01 -0.004,0.01498 -0.006,0.01744 -0.0208,0.02627 -0.0336,0.03772 -5.3e-4,0.0011 -5.3e-4,0.0024 -10e-4,0.0036 -2e-4,5.29e-4 -8e-5,0.0011 -5.3e-4,0.0016 -7.9e-4,0.0016 -0.002,0.0029 -0.003,0.0036 -0.003,0.0035 -0.005,0.0068 -0.007,0.01035 0.49158,0.95622 0.76947,2.072071 0.76947,3.296957 0,0.422569 -0.0285,0.685073 -0.10542,1.068152 h -9.6113 l -0.0801,0.101801 c 0.36991,1.548951 1.7223,2.525427 3.53518,2.525427 1.23788,0 2.01459,-0.357179 2.78123,-1.242301 h 3.1073 c -0.0988,0.281165 -0.22112,0.542711 -0.36948,0.800987 0.004,0.01008 0.006,0.02103 0.009,0.03152 -8e-4,-0.0035 -0.007,-0.01617 0.0114,0.01601 0.004,0.008 0.007,0.0158 0.009,0.02429 5.3e-4,0.0021 -0.004,-0.0066 -0.003,-0.0047 0.003,0.0093 0.008,0.01752 0.0119,0.02635 0.002,0.0021 0.002,0.0011 0.005,0.0041 0.0143,0.03459 0.0293,0.069 0.0398,0.104902 0.005,-0.0069 0.01,-0.01376 0.0139,-0.02066 1.39641,2.946897 4.48387,5.124237 7.92975,5.124237 3.3613,0 6.39596,-2.13531 7.81865,-4.980061 0.005,0.0066 0.009,0.01286 0.0145,0.01913 0.009,-0.01672 0.0206,-0.03267 0.0346,-0.04754 l 0.002,-0.0011 c 0.004,-0.03396 0.003,-0.07102 0.0258,-0.09509 0.008,-0.0088 0.0184,-0.01209 0.0274,-0.01913 -0.69297,-1.013825 -1.09502,-2.23629 -1.09502,-3.571359 0,-1.295504 0.36557,-2.493891 0.99942,-3.500562 v -0.11254 c 0,-0.0296 -1e-5,-0.05924 0,-0.08888 -0.009,-0.0098 -0.0115,-0.01606 -0.0181,-0.02429 -0.006,-0.0057 -0.011,-0.01138 -0.0165,-0.01707 -0.005,0.0071 -0.0111,0.01429 -0.016,0.0217 -1.44846,-2.79609 -4.46659,-4.807976 -7.77524,-4.807976 z m 7.80779,4.803326 c 0.006,0.0064 0.0124,0.01275 0.0186,0.01913 0,-0.0231 1e-5,-0.04617 0,-0.06925 -0.007,5.29e-4 -0.009,0.0032 -0.0139,0.0047 -0.005,0.0062 -0.009,0.01241 -0.0139,0.0186 5.3e-4,0.0076 -10e-4,0.01397 0.009,0.02687 z m -7.8884,-2.708879 c 3.70276,0 6.61562,2.844361 6.61562,6.434233 0,3.680169 -2.93521,6.502445 -6.72828,6.502445 -1.53529,0 -2.95785,-0.4968 -4.10931,-1.399915 -0.79022,-0.632169 -1.26415,-1.241587 -1.94148,-2.528528 h 1.89653 c 1.28693,1.71591 2.48347,2.393135 4.22196,2.393135 2.77706,0 4.96714,-2.189752 4.96714,-4.921663 0,-2.777069 -2.14495,-4.944401 -4.89944,-4.944401 -1.8288,0 -3.3414,0.880189 -4.28966,2.505789 h -1.87431 c 0.99342,-2.483553 3.36417,-4.041095 6.14123,-4.041095 z m 9.23871,1.256771 c -10e-4,0.0155 -7.9e-4,0.03096 -0.002,0.04651 0.004,0.005 0.007,0.0099 0.0109,0.01498 8e-4,-0.0021 -0.003,-0.0105 -0.002,-0.01138 -0.003,-0.01669 -0.004,-0.03343 -0.007,-0.05013 z m -22.77277,1.256771 c -1.81079,0 -3.07158,0.910966 -3.55431,2.542995 l 0.078,0.105421 h 6.93136 l 0.0801,-0.101801 C 59.69026,92.652007 59.2782,92.011574 58.67727,91.579105 58.07634,91.146543 57.28957,90.922814 56.3508,90.922814 Z m 26.996278,0 c -1.8108,0 -3.07211,0.910966 -3.55482,2.542995 l 0.078,0.105421 h 6.93188 l 0.0801,-0.101801 c -0.19572,-0.817422 -0.60778,-1.457868 -1.20871,-1.890324 -0.60093,-0.432562 -1.38771,-0.656291 -2.32648,-0.656291 z m -26.996278,0.16588 c 0.8496,0 1.55668,0.190215 2.1084,0.545704 l -1.341,1.772502 h -4.0933 c 0.49209,-1.487062 1.62062,-2.318206 3.3259,-2.318206 z m 26.996278,0 c 0.91261,0 1.6629,0.216816 2.23036,0.625285 0.53541,0.385389 0.88119,0.97141 1.08004,1.692921 h -3.84525 l -1.39216,-1.839683 c 0.52503,-0.313333 1.1687,-0.478523 1.92701,-0.478523 z M 53.11072,96.213962 h 1.88412 l -1.05523,1.395781 C 53.55002,97.23876 53.26583,96.767016 53.11072,96.213962 Z m 8.77362,2.374533 c -7.9e-4,5.29e-4 -0.002,0.0019 -0.002,0.0021 -8e-4,7.94e-4 0.002,-7.93e-4 0.003,-0.0016 z m 17.39481,1.414905 c -0.008,0.008 -0.0155,0.0177 -0.0238,0.0259 0.006,-0.004 0.0132,-0.007 0.0171,-0.0129 0.003,-0.004 0.003,-0.006 0.007,-0.0129 z m -17.06305,8.86354 c 2.1449,0 3.65803,0.76766 4.87723,2.48357 v -2.19005 h 1.6707 v 12.34963 h -1.6707 v -2.16731 c -1.30951,1.76107 -2.66431,2.46083 -4.76405,2.46083 -3.79306,0 -6.61562,-2.75457 -6.61562,-6.43474 0,-3.70276 2.7997,-6.50193 6.50244,-6.50193 z m 26.773048,0 c 1.98684,0 3.40957,1.35464 3.47731,3.34139 h -1.69344 c -0.0903,-1.17395 -0.72235,-1.80609 -1.80609,-1.80609 -0.99342,0 -1.78387,0.78994 -1.78387,1.78336 0,0.72249 0.36149,1.24192 1.12913,1.62574 0.36125,0.18062 0.45149,0.22568 2.32544,0.99322 1.44498,0.6096 2.14457,1.64834 2.14457,3.16104 0,2.25778 -1.5577,3.83801 -3.77032,3.83801 -2.37056,0 -3.95133,-1.5352 -3.97391,-3.92844 h 1.64847 c 0.0903,1.51271 0.9483,2.39314 2.32544,2.39314 1.19662,0 2.0774,-0.9028 2.0774,-2.14458 0,-0.67733 -0.29394,-1.26434 -0.79065,-1.603 -0.31609,-0.2032 -0.85793,-0.47441 -1.60301,-0.76791 -1.73847,-0.72249 -1.76067,-0.72217 -2.27996,-1.19631 -0.6095,-0.56434 -0.92604,-1.33225 -0.92604,-2.21278 0,-2.00942 1.4901,-3.47679 3.49953,-3.47679 z m -26.727568,1.5353 c -2.68676,0 -4.85448,2.16722 -4.85448,4.85397 0,2.82223 2.14476,5.0121 4.9444,5.0121 2.66418,0 4.74183,-2.18971 4.74183,-4.98936 0,-2.75449 -2.12242,-4.87671 -4.83175,-4.87671 z m 15.36134,0 c -2.75448,0 -4.92167,2.1448 -4.92167,4.87671 0,1.39982 0.45129,2.52831 1.42214,3.52174 0.97084,0.99342 2.09954,1.46762 3.47679,1.46762 2.777058,0 4.877218,-2.14457 4.877218,-4.98936 0,-2.77706 -2.07741,-4.87671 -4.854478,-4.87671 z"
       style="color:#000000;font-style:normal;font-variant:normal;font-weight:600;font-stretch:normal;font-size:22.5778px;line-height:1;font-family:'URW Gothic L';-inkscape-font-specification:'URW Gothic L, Semi-Bold';font-variant-ligatures:normal;font-variant-position:normal;font-variant-caps:normal;font-variant-numeric:normal;font-variant-alternates:normal;font-feature-settings:normal;text-indent:0;text-align:start;text-decoration:none;text-decoration-line:none;text-decoration-style:solid;text-decoration-color:#000000;letter-spacing:-1.03188px;word-spacing:0px;text-transform:none;writing-mode:lr-tb;direction:ltr;text-orientation:mixed;dominant-baseline:auto;baseline-shift:baseline;text-anchor:start;white-space:normal;shape-padding:0;clip-rule:nonzero;display:inline;overflow:visible;visibility:visible;isolation:auto;mix-blend-mode:normal;color-interpolation:sRGB;color-interpolation-filters:linearRGB;solid-color:#000000;solid-opacity:1;vector-effect:none;fill:#2f0219;fill-opacity:1;fill-rule:nonzero;stroke:none;stroke-width:0.165;stroke-linecap:butt;stroke-linejoin:bevel;stroke-miterlimit:4;stroke-dasharray:none;stroke-dashoffset:0;stroke-opacity:1;color-rendering:auto;image-rendering:auto;shape-rendering:auto;text-rendering:auto;enable-background:accumulate"
       id="path891-9-2-5" />
    <path
       d="m 90.684118,101.0526 h 3.00284 v -5.892803 c 0,-1.67075 0.11289,-2.39324 0.49671,-3.00284 0.47414,-0.74507 1.26436,-1.15147 2.21263,-1.15147 0.76764,0 1.39982,0.27094 1.80622,0.79023 0.4064,0.54186 0.58702,1.46755 0.58702,3.13831 v 6.118573 h 3.002852 v -6.705603 c 0,-2.2352 -0.22578,-3.31893 -0.90312,-4.289773 -0.8128,-1.174046 -2.167462,-1.806224 -3.905952,-1.806224 -1.4224,0 -2.41582,0.428978 -3.52213,1.490135 v -1.196623 h -2.77707 z"
       style="font-style:normal;font-variant:normal;font-weight:600;font-stretch:normal;font-size:22.5778px;line-height:1;font-family:'URW Gothic L';-inkscape-font-specification:'URW Gothic L, Semi-Bold';font-variant-ligatures:normal;font-variant-caps:normal;font-variant-numeric:normal;font-feature-settings:normal;text-align:start;letter-spacing:-1.03188px;word-spacing:0px;writing-mode:lr-tb;text-anchor:start;display:inline;opacity:0.997;fill:none;fill-opacity:1;stroke:#2f0219;stroke-width:0.165;stroke-linejoin:bevel;stroke-miterlimit:4;stroke-dasharray:none;stroke-dashoffset:0;stroke-opacity:1"
       id="path897-2-1-4" />
    <path
       d="m 103.64165,101.0526 h 3.00284 v -9.776173 h 1.80623 v -2.731915 h -1.80623 v -4.176888 h -3.00284 v 4.176888 h -1.46756 v 2.731915 h 1.46756 z"
       style="font-style:normal;font-variant:normal;font-weight:600;font-stretch:normal;font-size:22.5778px;line-height:1;font-family:'URW Gothic L';-inkscape-font-specification:'URW Gothic L, Semi-Bold';font-variant-ligatures:normal;font-variant-caps:normal;font-variant-numeric:normal;font-feature-settings:normal;text-align:start;letter-spacing:-1.03188px;word-spacing:0px;writing-mode:lr-tb;text-anchor:start;display:inline;opacity:0.997;fill:none;fill-opacity:1;stroke:#2f0219;stroke-width:0.165;stroke-linejoin:bevel;stroke-miterlimit:4;stroke-dasharray:none;stroke-dashoffset:0;stroke-opacity:1"
       id="path899-3-5-4" />
    <flowRoot
       transform="matrix(0.26458333,0,0,0.26458333,31.090289,146.85239)"
       style="font-style:normal;font-weight:normal;font-size:16px;line-height:1.25;font-family:sans-serif;letter-spacing:-1.68px;word-spacing:16.63px;display:inline;opacity:0.997;fill:#2f0219;fill-opacity:1;stroke:none"
       id="flowRoot1031-3-7"
       xml:space="preserve"><flowRegion
         style="letter-spacing:-1.68px;word-spacing:16.63px;fill:#2f0219;fill-opacity:1"
         id="flowRegion1033-7-8"><rect
           style="letter-spacing:-1.68000019px;word-spacing:16.63000488px;fill:#2f0219;fill-opacity:1"
           y="-84.886719"
           x="5.6972656"
           height="60.338192"
           width="283.08298"
           id="rect1035-4-6" /></flowRegion><flowPara
         style="font-size:14.6667px;letter-spacing:-1.68px;word-spacing:16.63px;fill:#2f0219;fill-opacity:1"
         id="flowPara1037-5-8">RESEARCH REVERSE RELEASE REPEAT</flowPara></flowRoot>
    <path
       d="m 35.78428,101.39788 h 3.883378 c 2.528711,0 4.041422,-0.24836 5.396089,-0.92569 2.573866,-1.264363 4.086578,-4.018853 4.086578,-7.38294 0,-3.160877 -1.309512,-5.779907 -3.635023,-7.179727 -1.309511,-0.790217 -3.296355,-1.196617 -5.915378,-1.196617 H 35.78428 Z m 3.093155,-2.957693 V 87.670593 h 0.6096 c 1.964267,0 3.025423,0.18062 3.996267,0.67733 1.580445,0.8128 2.551289,2.596447 2.551289,4.741327 0,2.00943 -0.925689,3.793067 -2.415822,4.605867 -0.925689,0.51929 -2.212622,0.74507 -4.064,0.74507 z"
       style="font-style:normal;font-variant:normal;font-weight:600;font-stretch:normal;font-size:22.5778px;line-height:1;font-family:'URW Gothic L';-inkscape-font-specification:'URW Gothic L, Semi-Bold';font-variant-ligatures:normal;font-variant-caps:normal;font-variant-numeric:normal;font-feature-settings:normal;text-align:start;letter-spacing:-1.03188px;word-spacing:0px;writing-mode:lr-tb;text-anchor:start;display:inline;opacity:0.997;fill:#ffffff;fill-opacity:1;stroke:none;stroke-width:0.165;stroke-linejoin:bevel;stroke-miterlimit:4;stroke-dasharray:none;stroke-dashoffset:0;stroke-opacity:1"
       id="path889-7-3" />
    <path
       d="m 62.618323,96.475917 c 0.09031,-0.42898 0.112889,-0.69991 0.112889,-1.151457 0,-3.88338 -2.731913,-6.728177 -6.457245,-6.728177 -3.680178,0 -6.592711,2.912527 -6.592711,6.592707 0,3.657597 2.957688,6.5024 6.773333,6.5024 2.054578,0 3.6576,-0.74507 4.96711,-2.257783 0.474134,-0.58702 0.790224,-1.10631 0.993424,-1.73849 h -3.273779 c -0.767644,0.90311 -1.512711,1.24178 -2.754489,1.24178 -1.783644,0 -3.093155,-0.94827 -3.4544,-2.46098 z M 52.842144,93.83432 c 0.474134,-1.60302 1.693334,-2.48355 3.476978,-2.48355 1.851378,0 3.070577,0.88053 3.454401,2.48355 z"
       style="font-style:normal;font-variant:normal;font-weight:600;font-stretch:normal;font-size:22.5778px;line-height:1;font-family:'URW Gothic L';-inkscape-font-specification:'URW Gothic L, Semi-Bold';font-variant-ligatures:normal;font-variant-caps:normal;font-variant-numeric:normal;font-feature-settings:normal;text-align:start;letter-spacing:-1.03188px;word-spacing:0px;writing-mode:lr-tb;text-anchor:start;display:inline;opacity:0.997;fill:#ffffff;fill-opacity:1;stroke:none;stroke-width:0.165;stroke-linejoin:bevel;stroke-miterlimit:4;stroke-dasharray:none;stroke-dashoffset:0;stroke-opacity:1"
       id="path891-9-2" />
    <path
       d="m 89.614644,96.475917 c 0.09031,-0.42898 0.11289,-0.69991 0.11289,-1.151457 0,-3.88338 -2.731911,-6.728177 -6.457247,-6.728177 -3.680177,0 -6.59271,2.912527 -6.59271,6.592707 0,3.657597 2.95769,6.5024 6.773333,6.5024 2.054577,0 3.6576,-0.74507 4.967113,-2.257783 0.474131,-0.58702 0.790221,-1.10631 0.993421,-1.73849 h -3.273777 c -0.767644,0.90311 -1.512713,1.24178 -2.75449,1.24178 -1.783643,0 -3.093154,-0.94827 -3.4544,-2.46098 z M 79.838467,93.83432 c 0.474133,-1.60302 1.693333,-2.48355 3.476977,-2.48355 1.851379,0 3.070579,0.88053 3.4544,2.48355 z"
       style="font-style:normal;font-variant:normal;font-weight:600;font-stretch:normal;font-size:22.5778px;line-height:1;font-family:'URW Gothic L';-inkscape-font-specification:'URW Gothic L, Semi-Bold';font-variant-ligatures:normal;font-variant-caps:normal;font-variant-numeric:normal;font-feature-settings:normal;text-align:start;letter-spacing:-1.03188px;word-spacing:0px;writing-mode:lr-tb;text-anchor:start;display:inline;opacity:0.997;fill:#ffffff;fill-opacity:1;stroke:none;stroke-width:0.165;stroke-linejoin:bevel;stroke-miterlimit:4;stroke-dasharray:none;stroke-dashoffset:0;stroke-opacity:1"
       id="path895-0-6" />
    <path
       d="m 90.651459,101.39788 h 3.002843 v -5.8928 c 0,-1.67076 0.11289,-2.39325 0.496713,-3.00285 0.474133,-0.74506 1.264354,-1.15146 2.21262,-1.15146 0.767647,0 1.399824,0.27093 1.806224,0.79022 0.4064,0.54186 0.587023,1.46755 0.587023,3.13831 v 6.11858 h 3.002848 v -6.7056 c 0,-2.2352 -0.22578,-3.31894 -0.90311,-4.289777 -0.81281,-1.17405 -2.167472,-1.80622 -3.905961,-1.80622 -1.4224,0 -2.415824,0.42897 -3.522134,1.49013 v -1.19662 h -2.777066 z"
       style="font-style:normal;font-variant:normal;font-weight:600;font-stretch:normal;font-size:22.5778px;line-height:1;font-family:'URW Gothic L';-inkscape-font-specification:'URW Gothic L, Semi-Bold';font-variant-ligatures:normal;font-variant-caps:normal;font-variant-numeric:normal;font-feature-settings:normal;text-align:start;letter-spacing:-1.03188px;word-spacing:0px;writing-mode:lr-tb;text-anchor:start;display:inline;opacity:0.997;fill:#ffffff;fill-opacity:1;stroke:none;stroke-width:0.165;stroke-linejoin:bevel;stroke-miterlimit:4;stroke-dasharray:none;stroke-dashoffset:0;stroke-opacity:1"
       id="path897-2-1" />
    <path
       d="m 103.60901,101.39788 h 3.00284 V 91.6217 h 1.80623 v -2.731907 h -1.80623 v -4.176887 h -3.00284 v 4.176887 h -1.46757 V 91.6217 h 1.46757 z"
       style="font-style:normal;font-variant:normal;font-weight:600;font-stretch:normal;font-size:22.5778px;line-height:1;font-family:'URW Gothic L';-inkscape-font-specification:'URW Gothic L, Semi-Bold';font-variant-ligatures:normal;font-variant-caps:normal;font-variant-numeric:normal;font-feature-settings:normal;text-align:start;letter-spacing:-1.03188px;word-spacing:0px;writing-mode:lr-tb;text-anchor:start;display:inline;opacity:0.997;fill:#ffffff;fill-opacity:1;stroke:none;stroke-width:0.165;stroke-linejoin:bevel;stroke-miterlimit:4;stroke-dasharray:none;stroke-dashoffset:0;stroke-opacity:1"
       id="path899-3-5" />
    <path
       d="m 65.585172,97.762857 c 1.286934,1.715906 2.483554,2.393243 4.222044,2.393243 2.777066,0 4.96711,-2.190043 4.96711,-4.92196 0,-2.77706 -2.144887,-4.944527 -4.899377,-4.944527 -1.8288,0 -3.34151,0.880527 -4.289777,2.506127 h -1.873956 c 0.993423,-2.483547 3.36409,-4.041417 6.141156,-4.041417 3.702754,0 6.61529,2.844797 6.61529,6.434667 0,3.680177 -2.935113,6.5024 -6.72818,6.5024 -1.535289,0 -2.957689,-0.49671 -4.109156,-1.39982 -0.79022,-0.632187 -1.264354,-1.241783 -1.941687,-2.528713 z"
       style="font-style:normal;font-variant:normal;font-weight:normal;font-stretch:normal;font-size:22.5778px;line-height:1;font-family:'URW Gothic L';-inkscape-font-specification:'URW Gothic L';font-variant-ligatures:normal;font-variant-caps:normal;font-variant-numeric:normal;font-feature-settings:normal;text-align:start;letter-spacing:0.00529167px;word-spacing:0px;writing-mode:lr-tb;text-anchor:start;display:inline;opacity:0.997;fill:#ffffff;fill-opacity:1;stroke:none;stroke-width:0.165;stroke-linejoin:bevel;stroke-miterlimit:4;stroke-dasharray:none;stroke-dashoffset:0;stroke-opacity:1"
       id="path893-9" />
  </g>
</svg>
